<?xml version="1.0" encoding="utf-8"?>
<!-- Generator: Adobe Illustrator 27.5.0, SVG Export Plug-In . SVG Version: 6.00 Build 0)  -->
<svg version="1.1" xmlns="http://www.w3.org/2000/svg" xmlns:xlink="http://www.w3.org/1999/xlink" x="0px" y="0px"
	 viewBox="0 0 750 500" style="enable-background:new 0 0 750 500;" xml:space="preserve">
<g id="BACKGROUND">
	<rect style="fill:#FFFFFF;" width="750" height="500"/>
</g>
<g id="OBJECTS">
	<g>
		<path style="fill:#CEE8F0;" d="M163.891,236.286c2.503,21.767-3.86,43.473-10.253,64.43s-12.965,42.558-10.885,64.369
			c2.008,21.06,14.187,42.594,33.964,49.556h435.11c9.32-16.521,17.563-33.663,20.598-52.268
			c3.935-24.123-2.812-51.608-22.779-65.706c-11.35-8.014-26.294-11.437-34.739-22.47c-15.382-20.096,0.552-49.916-6.859-74.114
			c-5.865-19.15-25.839-31.152-45.679-33.888c-19.84-2.737-39.855,1.944-59.433,6.163c-36.68,7.905-75.754,14.139-111.02,1.323
			c-26.045-9.464-47.323-28.391-68.607-46.136c-21.284-17.745-44.302-35.211-71.46-40.72c-27.158-5.508-59.424,4.564-71.097,29.696
			c-8.777,18.9-4.221,41.262,3.18,60.742C151.333,196.741,161.511,215.583,163.891,236.286z"/>
		<path style="fill:#CEE8F0;" d="M629.991,293.476c2.038-0.047,4.177-0.266,5.859-1.417c2.086-1.428,3.075-4.089,3.027-6.617
			c-0.048-2.527-0.994-4.951-2.11-7.219c-6.739-13.699-20.577-23.656-35.708-25.693c-6.492-0.874-15.838,1.191-15.545,9.593
			c0.195,5.601,6.269,12.651,9.911,16.482C604.298,287.938,617.031,293.776,629.991,293.476z"/>
		<path style="fill:#CEE8F0;" d="M151.273,260.121c-1.532,5.033-4.387,10.637-9.583,11.462c-4.648,0.738-9.034-2.993-10.821-7.347
			c-1.787-4.354-1.656-9.214-1.818-13.917c-0.565-16.345-5.088-32.54-13.073-46.813c-1.835-3.279-3.882-6.543-4.616-10.228
			c-0.734-3.685,0.174-7.99,3.258-10.137c4.339-3.021,10.326-0.457,14.565,2.703C152.908,203.524,159.632,232.658,151.273,260.121z"
			/>
	</g>
	<g>
		<path style="fill:#CEE8F0;" d="M494.447,129.938h78.499c2.959,0,3.953-4.096,1.258-5.317c-0.02-0.009-0.04-0.018-0.06-0.026
			c-2.41-1.038-5.161-0.379-7.774-0.152c-2.614,0.227-5.729-0.291-6.923-2.627c-0.853-1.669-0.442-3.809-1.441-5.395
			c-1.266-2.01-4.157-2.183-6.459-1.598s-4.558,1.706-6.922,1.477c-3.596-0.349-6.123-3.642-7.859-6.811
			c-2.309-4.214-4.404-9.111-10.242-9.472c-0.933-0.058-1.874,0.039-2.777,0.277c-4.835,1.274-7.885,5.312-9.602,9.676
			c-0.985,2.504-1.596,5.187-3.039,7.458c-1.443,2.271-4.046,4.103-6.689,3.6c-3.265-0.622-5.354-4.495-9.292-3.218
			c-2.329,0.755-3.898,2.934-4.132,5.372c-0.179,1.862,0.194,3.552,0.897,5.117C492.34,129.3,493.347,129.938,494.447,129.938z"/>
		<path style="fill:#FFFFFF;" d="M211.78,159.271h78.499c2.96,0,3.953-4.096,1.258-5.317c-0.02-0.009-0.04-0.018-0.06-0.026
			c-2.41-1.038-5.161-0.379-7.775-0.152c-2.614,0.227-5.729-0.29-6.922-2.627c-0.853-1.669-0.443-3.809-1.441-5.395
			c-1.266-2.01-4.157-2.183-6.459-1.598c-2.302,0.586-4.558,1.706-6.922,1.477c-3.596-0.349-6.123-3.642-7.859-6.811
			c-2.309-4.214-4.404-9.111-10.242-9.472c-0.932-0.058-1.874,0.039-2.777,0.277c-4.835,1.274-7.885,5.312-9.602,9.676
			c-0.985,2.504-1.596,5.187-3.039,7.458c-1.443,2.27-4.046,4.103-6.689,3.6c-3.265-0.622-5.354-4.495-9.293-3.218
			c-2.329,0.755-3.898,2.934-4.132,5.372c-0.179,1.862,0.194,3.552,0.897,5.117C209.673,158.633,210.681,159.271,211.78,159.271z"/>
		<g>
			<path style="fill:#CEE8F0;" d="M608,147.723c-0.139-0.24-0.306-0.461-0.502-0.648c-1.124-1.074-2.746-1.389-4.257-1.753
				c-1.511-0.364-3.129-0.916-3.956-2.232c-0.945-1.504-0.606-3.645-1.808-4.953c-1.302-1.419-3.63-1.047-5.395-0.276
				c-1.765,0.771-3.583,1.856-5.476,1.504c-2.951-0.548-4.127-4.052-6.187-6.236c-3.57-3.785-10.817-2.793-13.237,1.813
				c-1.397,2.659-1.539,6.306-4.157,7.777c-1.683,0.945-3.762,0.569-5.664,0.243c-1.902-0.326-4.06-0.513-5.568,0.692
				c-0.853,0.682-1.085,2.546-0.778,4.07H608z"/>
		</g>
		<g>
			<g>
				<path style="fill:#CEE8F0;" d="M141.974,304c-0.15-0.26-0.332-0.5-0.544-0.703c-1.218-1.163-2.975-1.505-4.612-1.899
					c-1.637-0.394-3.39-0.993-4.286-2.419c-1.023-1.629-0.657-3.949-1.958-5.366c-1.411-1.537-3.933-1.134-5.844-0.299
					c-1.912,0.835-3.882,2.01-5.933,1.629c-3.197-0.594-4.471-4.39-6.702-6.756c-3.867-4.101-11.719-3.026-14.341,1.964
					c-1.514,2.88-1.667,6.832-4.504,8.426c-1.823,1.024-4.076,0.616-6.137,0.263c-2.061-0.353-4.399-0.556-6.032,0.749
					c-0.924,0.739-1.175,2.758-0.843,4.41H141.974z"/>
			</g>
		</g>
	</g>
	<g>
		<path style="fill:#FFFFFF;" d="M193.667,191L193.667,191c0-4.878-3.955-8.833-8.833-8.833l0,0c4.878,0,8.833-3.955,8.833-8.833
			l0,0c0,4.879,3.955,8.833,8.833,8.833l0,0C197.621,182.167,193.667,186.122,193.667,191z"/>
		<path style="fill:#FFFFFF;" d="M540.167,190.333L540.167,190.333c0-3.958-3.209-7.167-7.167-7.167l0,0
			c3.958,0,7.167-3.209,7.167-7.167l0,0c0,3.958,3.209,7.167,7.167,7.167l0,0C543.375,183.167,540.167,186.375,540.167,190.333z"/>
		<path style="fill:#FFFFFF;" d="M598.167,303.333L598.167,303.333c0-3.958-3.209-7.167-7.167-7.167l0,0
			c3.958,0,7.167-3.209,7.167-7.167l0,0c0,3.958,3.209,7.167,7.167,7.167l0,0C601.375,296.167,598.167,299.375,598.167,303.333z"/>
		<path style="fill:#FFFFFF;" d="M604.917,307.708L604.917,307.708c0-2.301-1.865-4.167-4.167-4.167l0,0
			c2.301,0,4.167-1.865,4.167-4.167l0,0c0,2.301,1.865,4.167,4.167,4.167l0,0C606.782,303.542,604.917,305.407,604.917,307.708z"/>
		<path style="fill:#FFFFFF;" d="M216.167,359.833L216.167,359.833c0-3.958-3.209-7.167-7.167-7.167l0,0
			c3.958,0,7.167-3.209,7.167-7.167l0,0c0,3.958,3.209,7.167,7.167,7.167l0,0C219.375,352.667,216.167,355.875,216.167,359.833z"/>
		<path style="fill:#FFFFFF;" d="M272.667,181.833L272.667,181.833c0-3.958-3.209-7.167-7.167-7.167l0,0
			c3.958,0,7.167-3.209,7.167-7.167l0,0c0,3.958,3.209,7.167,7.167,7.167l0,0C275.875,174.667,272.667,177.875,272.667,181.833z"/>
		<path style="fill:#FFFFFF;" d="M267.833,187.167L267.833,187.167c0-1.841-1.492-3.333-3.333-3.333l0,0
			c1.841,0,3.333-1.492,3.333-3.333l0,0c0,1.841,1.492,3.333,3.333,3.333l0,0C269.326,183.833,267.833,185.326,267.833,187.167z"/>
		<path style="fill:#FFFFFF;" d="M201.5,194L201.5,194c0-2.761-2.239-5-5-5l0,0c2.761,0,5-2.239,5-5l0,0c0,2.761,2.239,5,5,5l0,0
			C203.739,189,201.5,191.239,201.5,194z"/>
	</g>
	<g>
		<g>
			<g>
				<g>
					<path style="fill:#21B789;" d="M389.557,340.856c-2.682-9.191-1.726-19.862,4.364-27.249
						c6.443-7.815,17.098-10.595,25.207-16.662c8.179-6.12,13.606-15.786,14.574-25.955c1.176-12.36-3.492-26.49,4.186-36.248
						c8.348-10.609,25.974-8.636,35.561-18.141c4.855-4.814,6.801-11.778,10.537-17.505c3.735-5.726,11.188-10.432,17.195-7.167
						c5.007,2.722,6.147,9.492,5.303,15.128c-0.844,5.636-3.076,11.162-2.558,16.837c0.634,6.952,5.229,12.787,9.22,18.514
						c3.99,5.727,7.687,12.543,6.194,19.362c-1.419,6.486-7.157,11.077-12.927,14.362c-5.77,3.285-12.12,5.962-16.514,10.94
						c-4.808,5.449-6.598,12.962-6.968,20.219c-0.37,7.257,0.507,14.53,0.247,21.792c-0.462,12.879-4.689,25.781-12.891,35.722
						c-8.202,9.941-20.52,16.67-33.401,17.062C414.659,382.545,395.428,360.973,389.557,340.856z"/>
					<g>
						
							<line style="fill:none;stroke:#0E293A;stroke-linecap:round;stroke-linejoin:round;stroke-miterlimit:10;" x1="498.25" y1="196.5" x2="420.845" y2="369.337"/>
						
							<line style="fill:none;stroke:#0E293A;stroke-linecap:round;stroke-linejoin:round;stroke-miterlimit:10;" x1="466" y1="224.75" x2="472.25" y2="254.5"/>
						
							<line style="fill:none;stroke:#0E293A;stroke-linecap:round;stroke-linejoin:round;stroke-miterlimit:10;" x1="510.75" y1="246.375" x2="463.875" y2="273.75"/>
						<path style="fill:none;stroke:#0E293A;stroke-linecap:round;stroke-linejoin:round;stroke-miterlimit:10;" d="
							M434.375,280.875c0.125,0.375,9.625,36,9.625,36"/>
						
							<line style="fill:none;stroke:#0E293A;stroke-linecap:round;stroke-linejoin:round;stroke-miterlimit:10;" x1="479.125" y1="321.125" x2="431.5" y2="345.5"/>
					</g>
				</g>
				<path style="fill:#3BDBAA;" d="M498.242,352.605c5.942-9.341,10.276-19.448,13.06-29.966l-9.685,1.465l10.816-6.154
					c2.577-11.782,3.257-24.004,2.101-36.187c-0.184-1.935-2.414-2.943-3.999-1.816c-7.846,5.579-15.206,11.795-22.068,18.534
					l0.856,9.039l-3.962-5.913c-8.911,9.161-16.933,19.215-24.024,29.899l6.627,8.172l-9.039-4.467
					c-4.386,6.904-8.387,14.053-12,21.376l10.008,12.054l-11.978-7.955c-7.323,15.804-12.527,33.557-8.518,50.126
					c0.455,1.882,2.767,2.589,4.19,1.276C460.785,393.493,483.607,375.613,498.242,352.605z"/>
			</g>
			<g>
				<g>
					<path style="fill:#21B789;" d="M285.556,413.009c-9.551,0.655-19.771-2.56-25.686-10.089
						c-6.257-7.964-6.694-18.968-10.888-28.187c-4.23-9.298-12.511-16.667-22.239-19.786c-11.823-3.792-26.624-2.253-34.515-11.84
						c-8.579-10.423-2.883-27.22-10.118-38.617c-3.664-5.772-10.052-9.163-14.847-14.036c-4.795-4.873-7.799-13.16-3.324-18.329
						c3.729-4.309,10.587-3.976,15.912-1.946s10.246,5.391,15.901,6.099c6.926,0.867,13.609-2.375,20.057-5.048
						c6.448-2.674,13.897-4.827,20.239-1.911c6.032,2.773,9.291,9.36,11.266,15.699c1.975,6.339,3.233,13.115,7.157,18.471
						c4.294,5.862,11.251,9.216,18.262,11.13s14.303,2.611,21.341,4.418c12.483,3.205,24.182,10.093,32.139,20.231
						c7.957,10.137,11.898,23.609,9.526,36.277C331.648,397.401,306.463,411.576,285.556,413.009z"/>
					
						<line style="fill:none;stroke:#0E293A;stroke-linecap:round;stroke-linejoin:round;stroke-miterlimit:10;" x1="168.595" y1="276.337" x2="317.375" y2="392.75"/>
					
						<line style="fill:none;stroke:#0E293A;stroke-linecap:round;stroke-linejoin:round;stroke-miterlimit:10;" x1="207.25" y1="279.875" x2="216" y2="313.25"/>
					
						<line style="fill:none;stroke:#0E293A;stroke-linecap:round;stroke-linejoin:round;stroke-miterlimit:10;" x1="194.875" y1="336.125" x2="235.75" y2="328.75"/>
					
						<line style="fill:none;stroke:#0E293A;stroke-linecap:round;stroke-linejoin:round;stroke-miterlimit:10;" x1="268.375" y1="319" x2="273.625" y2="358.375"/>
					<path style="fill:none;stroke:#0E293A;stroke-linecap:round;stroke-linejoin:round;stroke-miterlimit:10;" d="M264.625,383.5
						c0.375,0.125,33.25-6.125,33.25-6.125"/>
				</g>
				<g>
					<path style="fill:#3BDBAA;" d="M270.493,281.048c-4.794-16.09-12.063-31.099-21.343-44.74l-7.948,12.549l3.701-18.505
						c-10.934-14.661-24.256-27.588-39.36-38.371c-2.4-1.713-5.771-0.159-6.055,2.775c-1.408,14.53-1.603,29.14-0.704,43.697
						l11.204,8.003l-10.709-1.339c1.637,19.312,5.179,38.492,10.369,57.231l15.947,0.532l-14.1,5.913
						c3.549,11.885,7.761,23.573,12.557,34.989l23.753,0.516l-21.015,5.813c10.824,24.094,25.985,47.7,48.948,59.575
						c2.608,1.349,5.715-0.595,5.626-3.53C280.098,364.588,282.301,320.677,270.493,281.048z"/>
					
						<line style="fill:none;stroke:#0E293A;stroke-linecap:round;stroke-linejoin:round;stroke-miterlimit:10;" x1="206.595" y1="200.337" x2="262.095" y2="375.337"/>
					
						<line style="fill:none;stroke:#0E293A;stroke-linecap:round;stroke-linejoin:round;stroke-miterlimit:10;" x1="203.333" y1="255.667" x2="230.125" y2="275.25"/>
					<path style="fill:none;stroke:#0E293A;stroke-linecap:round;stroke-linejoin:round;stroke-miterlimit:10;" d="M255.375,260
						c-0.125,0.5-13.625,50.875-13.625,50.875"/>
					
						<line style="fill:none;stroke:#0E293A;stroke-linecap:round;stroke-linejoin:round;stroke-miterlimit:10;" x1="220.75" y1="323.5" x2="249.125" y2="334.375"/>
					
						<line style="fill:none;stroke:#0E293A;stroke-linecap:round;stroke-linejoin:round;stroke-miterlimit:10;" x1="272.5" y1="322.25" x2="257.625" y2="360.625"/>
				</g>
			</g>
		</g>
		<g>
			<path style="fill:#0E293A;" d="M436.249,414.641H280.94c-9.696,0-17.557-7.86-17.557-17.557V104.022
				c0-9.696,7.86-17.557,17.557-17.557h155.309c9.696,0,17.557,7.86,17.557,17.557v293.062
				C453.806,406.78,445.946,414.641,436.249,414.641z"/>
			<rect x="270.569" y="110.099" style="fill:#FFFFFF;" width="176.051" height="280.907"/>
			<g>
				<g>
					<g>
						<path style="fill:#CCE2FF;" d="M355.117,269.917c-0.014,0-0.029-0.001-0.043-0.001c-2.369-0.116-4.754-0.355-7.087-0.708
							c-0.474-0.072-0.8-0.514-0.728-0.988c0.072-0.475,0.517-0.801,0.988-0.728c2.276,0.344,4.601,0.577,6.912,0.69
							c0.479,0.023,0.848,0.431,0.825,0.91C355.961,269.555,355.576,269.917,355.117,269.917z M362.149,269.914
							c-0.46,0-0.843-0.361-0.866-0.825c-0.024-0.479,0.345-0.887,0.823-0.911c2.311-0.117,4.637-0.352,6.911-0.699
							c0.475-0.072,0.918,0.254,0.989,0.728c0.073,0.474-0.254,0.917-0.728,0.989c-2.332,0.355-4.716,0.597-7.085,0.716
							C362.179,269.913,362.164,269.914,362.149,269.914z M341.226,267.813c-0.072,0-0.145-0.009-0.217-0.027
							c-2.293-0.591-4.581-1.306-6.8-2.127c-0.449-0.166-0.68-0.666-0.513-1.116c0.167-0.449,0.666-0.677,1.116-0.513
							c2.163,0.801,4.394,1.498,6.63,2.073c0.464,0.12,0.744,0.593,0.625,1.058C341.965,267.552,341.612,267.813,341.226,267.813z
							 M376.039,267.793c-0.386,0-0.739-0.26-0.84-0.651c-0.12-0.464,0.159-0.938,0.623-1.058c2.237-0.579,4.466-1.278,6.627-2.08
							c0.447-0.168,0.949,0.062,1.116,0.512c0.167,0.449-0.062,0.949-0.512,1.116c-2.217,0.823-4.503,1.54-6.797,2.134
							C376.184,267.785,376.111,267.793,376.039,267.793z M328.043,262.94c-0.128,0-0.259-0.029-0.382-0.089
							c-2.126-1.042-4.221-2.206-6.229-3.458c-0.407-0.253-0.531-0.789-0.277-1.196c0.254-0.406,0.788-0.532,1.196-0.277
							c1.957,1.221,4,2.356,6.074,3.372c0.431,0.211,0.608,0.732,0.397,1.162C328.673,262.762,328.364,262.94,328.043,262.94z
							 M389.215,262.908c-0.321,0-0.629-0.178-0.78-0.485c-0.212-0.43-0.035-0.951,0.395-1.162c2.071-1.019,4.113-2.156,6.069-3.379
							c0.406-0.252,0.942-0.132,1.197,0.276c0.254,0.407,0.13,0.943-0.276,1.197c-2.006,1.254-4.1,2.419-6.223,3.464
							C389.474,262.879,389.343,262.908,389.215,262.908z M316.118,255.505c-0.186,0-0.373-0.06-0.531-0.182
							c-1.871-1.447-3.689-3.008-5.406-4.638c-0.347-0.33-0.362-0.88-0.031-1.228c0.33-0.348,0.881-0.362,1.227-0.032
							c1.674,1.59,3.448,3.112,5.273,4.524c0.379,0.293,0.449,0.838,0.155,1.218C316.635,255.389,316.378,255.505,316.118,255.505z
							 M401.129,255.46c-0.259,0-0.516-0.116-0.687-0.336c-0.294-0.379-0.225-0.925,0.154-1.219
							c1.822-1.413,3.595-2.937,5.268-4.528c0.349-0.331,0.897-0.318,1.228,0.03c0.331,0.348,0.317,0.897-0.03,1.227
							c-1.716,1.632-3.533,3.195-5.401,4.644C401.503,255.401,401.315,255.46,401.129,255.46z M305.928,245.83
							c-0.244,0-0.487-0.103-0.659-0.302c-1.546-1.796-3.015-3.689-4.368-5.626c-0.275-0.393-0.179-0.934,0.214-1.209
							c0.393-0.273,0.934-0.179,1.209,0.215c1.319,1.889,2.752,3.735,4.261,5.487c0.312,0.363,0.271,0.912-0.092,1.225
							C306.33,245.761,306.128,245.83,305.928,245.83z M411.31,245.775c-0.2,0-0.401-0.069-0.565-0.21
							c-0.364-0.312-0.406-0.86-0.093-1.224c1.505-1.751,2.937-3.6,4.256-5.492c0.273-0.394,0.814-0.491,1.209-0.216
							c0.393,0.274,0.49,0.815,0.216,1.209c-1.352,1.941-2.82,3.835-4.363,5.631C411.797,245.673,411.554,245.775,411.31,245.775z
							 M297.882,234.311c-0.305,0-0.6-0.161-0.759-0.446c-1.155-2.071-2.213-4.221-3.147-6.39c-0.19-0.44,0.014-0.951,0.454-1.141
							c0.441-0.189,0.952,0.014,1.141,0.454c0.91,2.115,1.943,4.211,3.069,6.23c0.234,0.419,0.083,0.948-0.336,1.181
							C298.17,234.275,298.025,234.311,297.882,234.311z M419.345,234.245c-0.143,0-0.288-0.035-0.421-0.11
							c-0.419-0.233-0.57-0.762-0.337-1.181c1.123-2.02,2.153-4.118,3.063-6.236c0.19-0.44,0.701-0.644,1.141-0.455
							c0.44,0.189,0.645,0.7,0.455,1.14c-0.933,2.171-1.99,4.322-3.141,6.394C419.946,234.084,419.65,234.245,419.345,234.245z
							 M292.323,221.407c-0.369,0-0.712-0.237-0.828-0.608c-0.71-2.256-1.311-4.576-1.788-6.895
							c-0.096-0.47,0.206-0.928,0.676-1.025c0.473-0.098,0.928,0.206,1.025,0.676c0.464,2.262,1.051,4.523,1.743,6.723
							c0.144,0.458-0.11,0.945-0.568,1.089C292.497,221.394,292.409,221.407,292.323,221.407z M424.891,221.333
							c-0.086,0-0.173-0.013-0.26-0.04c-0.458-0.143-0.712-0.63-0.569-1.088c0.69-2.199,1.273-4.462,1.736-6.726
							c0.096-0.47,0.554-0.772,1.025-0.677c0.47,0.096,0.773,0.554,0.677,1.024c-0.474,2.322-1.073,4.643-1.78,6.898
							C425.603,221.095,425.261,221.333,424.891,221.333z M289.492,207.645c-0.44,0-0.817-0.333-0.862-0.78
							c-0.238-2.344-0.361-4.736-0.364-7.112c0-0.479,0.388-0.868,0.868-0.869h0.001c0.479,0,0.868,0.388,0.868,0.867
							c0.002,2.318,0.122,4.652,0.354,6.938c0.049,0.477-0.299,0.903-0.776,0.952C289.552,207.643,289.521,207.645,289.492,207.645z
							 M427.706,207.566c-0.03,0-0.059-0.001-0.088-0.005c-0.477-0.048-0.825-0.473-0.777-0.95c0.229-2.287,0.346-4.621,0.346-6.938
							l-0.001-0.156c0-0.479,0.389-0.868,0.868-0.868c0.479,0,0.869,0.389,0.869,0.868v0.145c0.001,2.386-0.119,4.779-0.355,7.123
							C428.524,207.232,428.147,207.566,427.706,207.566z M289.479,193.595c-0.029,0-0.058-0.001-0.087-0.004
							c-0.477-0.047-0.825-0.473-0.778-0.95c0.234-2.357,0.59-4.726,1.061-7.043c0.095-0.469,0.551-0.774,1.023-0.678
							c0.47,0.095,0.774,0.553,0.678,1.023c-0.458,2.259-0.807,4.57-1.035,6.869C290.297,193.261,289.919,193.595,289.479,193.595z
							 M427.686,193.361c-0.44,0-0.816-0.333-0.862-0.78c-0.235-2.294-0.591-4.604-1.058-6.864
							c-0.097-0.469,0.205-0.929,0.675-1.026c0.468-0.096,0.929,0.205,1.025,0.675c0.479,2.318,0.844,4.686,1.085,7.039
							c0.049,0.477-0.298,0.903-0.775,0.952C427.746,193.36,427.716,193.361,427.686,193.361z M292.276,179.826
							c-0.086,0-0.173-0.013-0.259-0.04c-0.458-0.143-0.713-0.63-0.57-1.087c0.706-2.261,1.536-4.51,2.467-6.684
							c0.189-0.44,0.697-0.647,1.14-0.456c0.44,0.189,0.645,0.699,0.456,1.14c-0.908,2.12-1.716,4.313-2.405,6.517
							C292.99,179.588,292.646,179.826,292.276,179.826z M424.845,179.602c-0.368,0-0.711-0.237-0.828-0.607
							c-0.696-2.202-1.512-4.392-2.428-6.508c-0.19-0.441,0.013-0.951,0.453-1.142c0.443-0.192,0.952,0.013,1.142,0.452
							c0.938,2.17,1.775,4.416,2.489,6.674c0.145,0.457-0.109,0.945-0.566,1.089C425.02,179.589,424.931,179.602,424.845,179.602z
							 M297.806,166.907c-0.142,0-0.287-0.035-0.421-0.109c-0.419-0.233-0.571-0.761-0.338-1.18
							c1.147-2.068,2.414-4.102,3.765-6.047c0.275-0.395,0.814-0.491,1.209-0.217c0.393,0.274,0.49,0.815,0.217,1.208
							c-1.319,1.896-2.554,3.881-3.672,5.897C298.407,166.745,298.111,166.907,297.806,166.907z M419.272,166.705
							c-0.304,0-0.599-0.16-0.758-0.445c-1.128-2.016-2.37-3.996-3.692-5.884c-0.275-0.393-0.179-0.934,0.213-1.209
							c0.392-0.275,0.935-0.179,1.209,0.213c1.356,1.936,2.629,3.965,3.785,6.032c0.234,0.419,0.085,0.948-0.334,1.182
							C419.561,166.669,419.416,166.705,419.272,166.705z M305.828,155.368c-0.2,0-0.401-0.068-0.564-0.209
							c-0.364-0.312-0.406-0.86-0.094-1.225c1.54-1.798,3.19-3.537,4.901-5.168c0.348-0.331,0.896-0.318,1.228,0.03
							c0.331,0.347,0.317,0.897-0.029,1.227c-1.67,1.592-3.278,3.288-4.782,5.042C306.316,155.265,306.073,155.368,305.828,155.368z
							 M411.212,155.194c-0.244,0-0.486-0.102-0.658-0.301c-1.508-1.748-3.122-3.439-4.797-5.026
							c-0.348-0.329-0.363-0.879-0.033-1.227c0.329-0.349,0.879-0.363,1.227-0.033c1.717,1.626,3.372,3.36,4.918,5.152
							c0.313,0.363,0.273,0.911-0.09,1.225C411.615,155.125,411.413,155.194,411.212,155.194z M316,145.671
							c-0.259,0-0.515-0.115-0.686-0.335c-0.294-0.379-0.226-0.924,0.153-1.219c1.873-1.456,3.837-2.829,5.837-4.082
							c0.406-0.254,0.943-0.132,1.197,0.275c0.255,0.407,0.132,0.942-0.275,1.197c-1.951,1.222-3.866,2.562-5.693,3.981
							C316.374,145.611,316.186,145.671,316,145.671z M401.009,145.53c-0.185,0-0.372-0.059-0.53-0.181
							c-1.83-1.413-3.75-2.746-5.706-3.963c-0.408-0.253-0.532-0.789-0.279-1.196c0.253-0.407,0.79-0.531,1.195-0.279
							c2.006,1.247,3.974,2.614,5.851,4.063c0.38,0.293,0.449,0.838,0.156,1.218C401.527,145.413,401.269,145.53,401.009,145.53z
							 M327.906,138.211c-0.32,0-0.628-0.178-0.78-0.484c-0.212-0.43-0.036-0.951,0.395-1.163c2.124-1.047,4.324-1.997,6.54-2.822
							c0.445-0.168,0.949,0.061,1.117,0.511c0.167,0.449-0.062,0.949-0.511,1.117c-2.161,0.805-4.306,1.731-6.377,2.752
							C328.166,138.182,328.035,138.211,327.906,138.211z M389.074,138.108c-0.128,0-0.258-0.028-0.381-0.089
							c-2.075-1.015-4.224-1.933-6.388-2.73c-0.45-0.166-0.68-0.665-0.514-1.115c0.165-0.45,0.667-0.68,1.115-0.515
							c2.219,0.817,4.422,1.759,6.55,2.8c0.431,0.211,0.609,0.73,0.399,1.161C389.704,137.929,389.396,138.108,389.074,138.108z
							 M341.073,133.31c-0.386,0-0.738-0.259-0.84-0.65c-0.12-0.464,0.158-0.938,0.622-1.059c2.289-0.595,4.637-1.078,6.977-1.438
							c0.473-0.071,0.917,0.253,0.99,0.726c0.073,0.474-0.253,0.917-0.727,0.99c-2.282,0.35-4.57,0.822-6.803,1.402
							C341.219,133.301,341.146,133.31,341.073,133.31z M375.89,133.251c-0.071,0-0.144-0.009-0.216-0.027
							c-2.232-0.572-4.522-1.036-6.807-1.379c-0.475-0.071-0.801-0.513-0.73-0.987c0.072-0.475,0.516-0.8,0.988-0.73
							c2.343,0.352,4.692,0.828,6.981,1.414c0.464,0.119,0.745,0.592,0.625,1.057C376.629,132.991,376.277,133.251,375.89,133.251z
							 M354.96,131.174c-0.459,0-0.842-0.36-0.866-0.824c-0.025-0.479,0.344-0.887,0.823-0.912c1.215-0.062,2.446-0.094,3.66-0.094
							c0.006,0,0.012,0,0.019,0c1.146,0,2.304,0.028,3.442,0.083c0.479,0.023,0.849,0.43,0.825,0.909
							c-0.023,0.48-0.434,0.849-0.909,0.825c-1.11-0.053-2.24-0.081-3.358-0.081c-0.006,0-0.012,0-0.019,0
							c-1.184,0-2.384,0.031-3.57,0.092C354.991,131.174,354.976,131.174,354.96,131.174z"/>
					</g>
					<g>
						<g>
							<path style="fill:#CEE8F0;" d="M278.145,187.967c-0.953-0.316-1.111-1.733-0.491-2.523c0.62-0.79,1.686-1.067,2.683-1.182
								c0.998-0.114,2.039-0.123,2.943-0.559c1.52-0.732,2.247-2.439,3.244-3.8c1.846-2.521,5.611-3.992,8.164-2.191
								c2.179,1.537,2.982,4.997,5.609,5.454c1.728,0.3,3.296-0.921,4.81-1.805c1.515-0.884,3.738-1.344,4.796,0.054
								c0.48,0.635,0.569,1.501,1.051,2.134c0.745,0.979,2.178,1.101,3.39,0.893c1.212-0.208,2.416-0.66,3.637-0.511
								c1.221,0.149,1.743,2.954,1.47,4.154L278.145,187.967z"/>
							<path style="fill:#CEE8F0;" d="M439.905,159.06c-0.1-0.173-0.22-0.332-0.361-0.467c-0.809-0.772-1.976-0.999-3.063-1.261
								s-2.251-0.659-2.846-1.606c-0.68-1.082-0.436-2.622-1.3-3.564c-0.937-1.021-2.612-0.753-3.881-0.198
								c-1.27,0.555-2.578,1.335-3.94,1.082c-2.123-0.394-2.969-2.915-4.451-4.486c-2.568-2.723-7.782-2.009-9.523,1.304
								c-1.005,1.913-1.107,4.537-2.991,5.595c-1.211,0.68-2.707,0.409-4.075,0.175c-1.369-0.235-2.921-0.369-4.006,0.498
								c-0.614,0.491-0.781,1.832-0.56,2.928H439.905z"/>
						</g>
						<g>
							<g>
								<path style="fill:#21B789;" d="M292.915,237.423h30.923c-0.951-3.344-0.856-6.911-0.644-10.393
									c0.224-3.694,0.563-7.434-0.13-11.069c-0.693-3.635-2.593-7.232-5.827-9.032c-3.233-1.799-7.885-1.214-9.91,1.884
									c-0.913,1.397-1.325,3.238-2.748,4.108c-1.535,0.939-3.681,0.356-5.165,1.373c-1.917,1.314-1.481,4.228-0.723,6.425
									c0.758,2.197,1.519,4.934-0.107,6.595c-1.55,1.584-4.343,1.095-6.085,2.466c-1.425,1.121-1.73,3.251-1.155,4.971
									C291.674,235.742,292.243,236.618,292.915,237.423z"/>
								<path style="fill:#21B789;" d="M402.305,209.084c1.229-1.278,3.058-1.954,4.822-1.78c1.765,0.173,3.427,1.191,4.384,2.684
									c1.227,1.915,1.282,4.423,2.594,6.281c2.704,3.832,9.201,3.085,12.001,6.848c1.463,1.966,1.477,4.626,1.313,7.071
									c-0.165,2.445-0.423,5.025,0.636,7.235h-28.61L402.305,209.084z"/>
								<g>
									<polygon style="fill:#BA473E;" points="305.32,184.958 377.886,184.958 392.995,161.924 324.113,161.924 									"/>
									<polygon style="fill:#B5D3DE;" points="342.832,237.423 310.077,237.423 310.077,184.963 326.188,164.458 342.832,184.963 
																			"/>
									<rect x="342.811" y="184.963" style="fill:#CEE8F0;" width="64.177" height="52.46"/>
									<polygon style="fill:#F16B5F;" points="411.869,184.958 342.787,184.958 323.995,161.924 393.076,161.924 									"/>
									<rect x="342.811" y="226.505" style="fill:#DBEBFF;" width="64.177" height="10.918"/>
									<rect x="310.077" y="226.438" style="fill:#A1C5D1;" width="32.754" height="10.985"/>
									<rect x="368.305" y="217.384" style="fill:#0E293A;" width="12.782" height="20.039"/>
									<rect x="314.338" y="192.818" style="fill:#0E293A;" width="24.366" height="8.521"/>
									<rect x="314.338" y="208.263" style="fill:#0E293A;" width="24.366" height="8.521"/>
									<g>
										<g>
											<g>
												<g>
													<rect x="346.267" y="202.938" style="fill:#0E293A;" width="17.229" height="9.154"/>
													<rect x="354.511" y="202.938" style="fill:#B3D4FF;" width="0.741" height="9.154"/>
													<rect x="346.144" y="210.59" style="fill:#36C2D9;" width="17.476" height="1.502"/>
												</g>
											</g>
											<g>
												<g>
													<rect x="384.814" y="202.938" style="fill:#0E293A;" width="17.229" height="9.154"/>
													<rect x="393.057" y="202.938" style="fill:#B3D4FF;" width="0.741" height="9.154"/>
													<rect x="384.69" y="210.59" style="fill:#36C2D9;" width="17.476" height="1.502"/>
												</g>
											</g>
										</g>
										<g>
											<g>
												<g>
													<rect x="346.267" y="218.516" style="fill:#0E293A;" width="17.229" height="9.154"/>
													<rect x="354.511" y="218.516" style="fill:#B3D4FF;" width="0.741" height="9.154"/>
													<rect x="346.144" y="226.168" style="fill:#36C2D9;" width="17.476" height="1.502"/>
												</g>
											</g>
											<g>
												<g>
													<rect x="384.814" y="218.516" style="fill:#0E293A;" width="17.229" height="9.154"/>
													<rect x="393.057" y="218.516" style="fill:#B3D4FF;" width="0.741" height="9.154"/>
													<rect x="384.69" y="226.168" style="fill:#36C2D9;" width="17.476" height="1.502"/>
												</g>
											</g>
										</g>
										<g>
											<g>
												<rect x="365.541" y="191.62" style="fill:#0E293A;" width="17.229" height="9.154"/>
												<rect x="373.784" y="191.62" style="fill:#B3D4FF;" width="0.741" height="9.154"/>
												<rect x="365.417" y="199.272" style="fill:#36C2D9;" width="17.476" height="1.502"/>
											</g>
										</g>
									</g>
									<g>
										<polygon style="fill:#0E293A;" points="326.124,164.542 342.777,184.954 343.406,185.713 342.788,186.208 
											341.289,186.184 341.301,184.92 325.173,165.743 										"/>
										<rect x="342.788" y="184.958" style="fill:#0E293A;" width="64.183" height="1.25"/>
										<g>
											<g>
												<path style="fill:#0E293A;" d="M390.375,164.837h-59.447c-0.276,0-0.5-0.224-0.5-0.5c0-0.276,0.224-0.5,0.5-0.5h59.447
													c0.276,0,0.5,0.224,0.5,0.5C390.875,164.613,390.651,164.837,390.375,164.837z"/>
											</g>
											<g>
												<path style="fill:#0E293A;" d="M394.708,170.17h-59.447c-0.276,0-0.5-0.224-0.5-0.5s0.224-0.5,0.5-0.5h59.447
													c0.276,0,0.5,0.224,0.5,0.5S394.984,170.17,394.708,170.17z"/>
											</g>
											<g>
												<path style="fill:#0E293A;" d="M399.041,175.503h-59.446c-0.276,0-0.5-0.224-0.5-0.5c0-0.276,0.224-0.5,0.5-0.5h59.446
													c0.276,0,0.5,0.224,0.5,0.5C399.541,175.279,399.317,175.503,399.041,175.503z"/>
											</g>
											<g>
												<path style="fill:#0E293A;" d="M403.375,180.837h-59.447c-0.276,0-0.5-0.224-0.5-0.5c0-0.276,0.224-0.5,0.5-0.5h59.447
													c0.276,0,0.5,0.224,0.5,0.5C403.875,180.613,403.651,180.837,403.375,180.837z"/>
											</g>
											<g>
												<path style="fill:#0E293A;" d="M344.679,170.17c-0.163,0-0.323-0.08-0.418-0.226l-3.417-5.209
													c-0.151-0.231-0.087-0.541,0.144-0.692c0.231-0.151,0.542-0.086,0.692,0.144l3.417,5.209
													c0.151,0.231,0.087,0.541-0.144,0.692C344.868,170.144,344.773,170.17,344.679,170.17z"/>
											</g>
											<g>
												<path style="fill:#0E293A;" d="M357.595,170.17c-0.164,0-0.324-0.08-0.419-0.228l-3.333-5.125
													c-0.151-0.231-0.085-0.541,0.146-0.691c0.232-0.152,0.542-0.085,0.691,0.146l3.333,5.125
													c0.151,0.231,0.085,0.541-0.146,0.691C357.783,170.144,357.688,170.17,357.595,170.17z"/>
											</g>
											<g>
												<path style="fill:#0E293A;" d="M352.929,175.503c-0.164,0-0.325-0.08-0.42-0.229l-3.333-5.166
													c-0.15-0.232-0.083-0.542,0.149-0.691c0.231-0.151,0.541-0.084,0.691,0.149l3.333,5.167
													c0.15,0.232,0.083,0.542-0.149,0.691C353.116,175.477,353.021,175.503,352.929,175.503z"/>
											</g>
											<g>
												<path style="fill:#0E293A;" d="M366.762,175.503c-0.162,0-0.321-0.079-0.417-0.224l-3.334-5.042
													c-0.152-0.23-0.089-0.54,0.142-0.693c0.23-0.153,0.541-0.09,0.692,0.141l3.334,5.042
													c0.152,0.23,0.089,0.541-0.142,0.693C366.952,175.476,366.856,175.503,366.762,175.503z"/>
											</g>
											<g>
												<path style="fill:#0E293A;" d="M380.595,175.503c-0.163,0-0.324-0.08-0.42-0.228l-3.375-5.208
													c-0.149-0.232-0.084-0.541,0.148-0.691c0.23-0.149,0.541-0.085,0.691,0.147l3.375,5.208
													c0.149,0.232,0.084,0.542-0.148,0.692C380.782,175.477,380.688,175.503,380.595,175.503z"/>
											</g>
											<g>
												<path style="fill:#0E293A;" d="M394.428,175.503c-0.162,0-0.321-0.079-0.417-0.224l-3.333-5.042
													c-0.152-0.23-0.089-0.54,0.142-0.693c0.23-0.153,0.54-0.09,0.692,0.141l3.333,5.042c0.152,0.23,0.089,0.541-0.142,0.693
													C394.618,175.476,394.522,175.503,394.428,175.503z"/>
											</g>
											<g>
												<path style="fill:#0E293A;" d="M370.512,170.17c-0.161,0-0.32-0.079-0.417-0.224l-3.459-5.208
													c-0.152-0.23-0.09-0.541,0.141-0.693c0.228-0.153,0.539-0.092,0.693,0.14l3.459,5.208
													c0.152,0.23,0.09,0.541-0.141,0.693C370.703,170.143,370.607,170.17,370.512,170.17z"/>
											</g>
											<g>
												<path style="fill:#0E293A;" d="M383.428,170.17c-0.162,0-0.321-0.079-0.417-0.224l-3.416-5.167
													c-0.152-0.231-0.089-0.541,0.142-0.693c0.229-0.153,0.54-0.09,0.692,0.141l3.416,5.167
													c0.152,0.23,0.089,0.541-0.142,0.693C383.618,170.143,383.522,170.17,383.428,170.17z"/>
											</g>
											<g>
												<path style="fill:#0E293A;" d="M349.262,180.837c-0.163,0-0.322-0.079-0.418-0.225l-3.375-5.125
													c-0.152-0.23-0.088-0.54,0.143-0.692c0.23-0.15,0.541-0.088,0.692,0.143l3.375,5.125c0.152,0.23,0.088,0.54-0.143,0.692
													C349.452,180.81,349.356,180.837,349.262,180.837z"/>
											</g>
											<g>
												<path style="fill:#0E293A;" d="M362.178,180.837c-0.163,0-0.324-0.08-0.42-0.228l-3.374-5.208
													c-0.15-0.232-0.084-0.542,0.147-0.691c0.232-0.151,0.541-0.084,0.691,0.147l3.375,5.209
													c0.149,0.232,0.084,0.541-0.148,0.691C362.365,180.811,362.271,180.837,362.178,180.837z"/>
											</g>
											<g>
												<path style="fill:#0E293A;" d="M375.095,180.837c-0.161,0-0.319-0.078-0.416-0.223l-3.417-5.125
													c-0.153-0.229-0.091-0.54,0.139-0.693c0.227-0.153,0.539-0.092,0.693,0.139l3.417,5.125
													c0.153,0.23,0.091,0.54-0.139,0.693C375.287,180.809,375.19,180.837,375.095,180.837z"/>
											</g>
											<g>
												<path style="fill:#0E293A;" d="M388.012,180.837c-0.162,0-0.321-0.079-0.418-0.225l-3.375-5.125
													c-0.151-0.23-0.088-0.54,0.143-0.692c0.229-0.152,0.539-0.09,0.693,0.143l3.375,5.125
													c0.151,0.23,0.088,0.54-0.143,0.692C388.202,180.81,388.106,180.837,388.012,180.837z"/>
											</g>
										</g>
									</g>
								</g>
								<g>
									<g>
										<rect x="288.16" y="237.023" style="fill:#048FA6;" width="140.871" height="0.799"/>
									</g>
								</g>
							</g>
						</g>
					</g>
					<g>
						<g>
							<path style="fill:#FBAC4D;" d="M304.98,261.418l3.162,6.406c0.064,0.13,0.189,0.22,0.332,0.241l7.07,1.027
								c0.362,0.053,0.506,0.497,0.245,0.753l-5.116,4.987c-0.104,0.101-0.151,0.247-0.127,0.391l1.208,7.041
								c0.062,0.36-0.316,0.635-0.64,0.465l-6.323-3.324c-0.129-0.068-0.282-0.068-0.411,0l-6.323,3.324
								c-0.324,0.17-0.702-0.105-0.64-0.465l1.208-7.041c0.025-0.143-0.023-0.289-0.127-0.391l-5.116-4.987
								c-0.262-0.255-0.117-0.7,0.245-0.753l7.07-1.027c0.144-0.021,0.268-0.111,0.332-0.241l3.162-6.406
								C304.351,261.09,304.818,261.09,304.98,261.418z"/>
							<path style="fill:#FBAC4D;" d="M331.985,261.418l3.162,6.406c0.064,0.13,0.188,0.22,0.332,0.241l7.07,1.027
								c0.362,0.053,0.506,0.497,0.244,0.753l-5.116,4.987c-0.104,0.101-0.151,0.247-0.127,0.391l1.208,7.041
								c0.062,0.36-0.317,0.635-0.64,0.465l-6.323-3.324c-0.129-0.068-0.282-0.068-0.411,0l-6.323,3.324
								c-0.324,0.17-0.702-0.105-0.64-0.465l1.208-7.041c0.025-0.143-0.023-0.289-0.127-0.391l-5.116-4.987
								c-0.262-0.255-0.117-0.7,0.244-0.753l7.07-1.027c0.144-0.021,0.268-0.111,0.332-0.241l3.162-6.406
								C331.356,261.09,331.823,261.09,331.985,261.418z"/>
							<path style="fill:#FBAC4D;" d="M358.99,261.418l3.162,6.406c0.064,0.13,0.188,0.22,0.332,0.241l7.07,1.027
								c0.362,0.053,0.506,0.497,0.245,0.753l-5.116,4.987c-0.104,0.101-0.151,0.247-0.127,0.391l1.208,7.041
								c0.062,0.36-0.316,0.635-0.64,0.465l-6.324-3.324c-0.129-0.068-0.282-0.068-0.411,0l-6.324,3.324
								c-0.324,0.17-0.702-0.105-0.64-0.465l1.208-7.041c0.025-0.143-0.023-0.289-0.127-0.391l-5.116-4.987
								c-0.262-0.255-0.117-0.7,0.245-0.753l7.07-1.027c0.144-0.021,0.268-0.111,0.332-0.241l3.162-6.406
								C358.361,261.09,358.828,261.09,358.99,261.418z"/>
							<path style="fill:#FBAC4D;" d="M385.995,261.418l3.162,6.406c0.064,0.13,0.188,0.22,0.332,0.241l7.07,1.027
								c0.362,0.053,0.506,0.497,0.245,0.753l-5.116,4.987c-0.104,0.101-0.152,0.247-0.127,0.391l1.208,7.041
								c0.062,0.36-0.316,0.635-0.64,0.465l-6.323-3.324c-0.129-0.068-0.282-0.068-0.411,0l-6.323,3.324
								c-0.324,0.17-0.702-0.105-0.64-0.465l1.208-7.041c0.025-0.143-0.023-0.289-0.127-0.391l-5.116-4.987
								c-0.262-0.255-0.117-0.7,0.245-0.753l7.07-1.027c0.144-0.021,0.268-0.111,0.332-0.241l3.162-6.406
								C385.366,261.09,385.833,261.09,385.995,261.418z"/>
							<path style="fill:#FBAC4D;" d="M413,261.418l3.162,6.406c0.064,0.13,0.189,0.22,0.332,0.241l7.07,1.027
								c0.362,0.053,0.506,0.497,0.245,0.753l-5.116,4.987c-0.104,0.101-0.151,0.247-0.127,0.391l1.208,7.041
								c0.062,0.36-0.316,0.635-0.64,0.465l-6.323-3.324c-0.129-0.068-0.282-0.068-0.411,0l-6.323,3.324
								c-0.324,0.17-0.702-0.105-0.64-0.465l1.208-7.041c0.025-0.143-0.023-0.289-0.127-0.391l-5.116-4.987
								c-0.262-0.255-0.117-0.7,0.245-0.753l7.07-1.027c0.144-0.021,0.268-0.111,0.332-0.241l3.162-6.406
								C412.371,261.09,412.839,261.09,413,261.418z"/>
						</g>
					</g>
				</g>
				<g>
					<g>
						<polygon style="fill:#CEE8F0;" points="337.224,310.057 297.818,335.162 297.818,362.042 363.929,329.988 						"/>
						<polygon style="fill:#CEE8F0;" points="419.371,365.748 419.371,307.983 341.973,307.983 						"/>
						<polygon style="fill:#CEE8F0;" points="343.055,345.113 297.818,367.046 297.818,371.461 370.501,371.461 						"/>
						<polygon style="fill:#CEE8F0;" points="367.994,333.021 347.375,343.018 377.002,371.461 419.371,371.461 419.371,371.366 
													"/>
						<polygon style="fill:#CEE8F0;" points="332.101,307.983 297.818,307.983 297.818,329.824 						"/>
					</g>
					<path style="fill:#F16B5F;" d="M330.448,307.845c-4.736,3.146-6.026,9.535-2.88,14.272s14.914,14.125,19.651,10.98
						c4.736-3.146,0.647-17.635-2.499-22.371C341.574,305.989,335.184,304.7,330.448,307.845z M338.517,319.994
						c-1.974,1.311-4.636,0.773-5.947-1.2c-1.311-1.974-0.773-4.636,1.2-5.947c1.973-1.311,4.636-0.773,5.947,1.2
						C341.028,316.021,340.49,318.684,338.517,319.994z"/>
				</g>
			</g>
			<g>
				<circle style="fill:#1D5578;" cx="327.081" cy="98.586" r="2.251"/>
				<path style="fill:#1D5578;" d="M390.671,100.274h-54.924c-0.932,0-1.688-0.756-1.688-1.688l0,0c0-0.932,0.756-1.688,1.688-1.688
					h54.924c0.932,0,1.688,0.756,1.688,1.688l0,0C392.359,99.519,391.603,100.274,390.671,100.274z"/>
			</g>
		</g>
	</g>
	<g>
		<g>
			<g>
				<g>
					<g>
						<path style="fill:#C27559;" d="M491.561,317.302c0,0-35.467,14.672-41.217,28.422c-5.383,12.873,25.167,55.543,29.088,60.936
							c-2.992,1.756-9.341,4.973-14.726,4.276c-0.409-0.053-0.83,0.088-1.073,0.422c-0.188,0.259-0.34,0.611-0.302,1.033h32.5
							c0.053-0.143,0.096-0.29,0.118-0.447c0.187-1.291,0.299-4.256-0.492-6.968l0.013-0.002c0,0-12.383-43.413-13.129-45.707
							c0,0,26.254-1.543,28.004-10.043C512.095,340.725,498.778,315.88,491.561,317.302z"/>
						<path style="fill:#0E293A;" d="M486.805,374.685c-2.94-0.45-5.91-0.78-8.79-1.48c-7.5-1.82-14.36-6.23-19.13-12.3
							c-4.14-5.27-6.45-11.4-6.99-17.97c0.42-0.61,0.89-1.23,1.41-1.84c0.65,6.26,2.95,12.11,6.91,17.15
							c4.78,6.07,11.63,10.47,19.13,12.29c2.17,0.53,4.39,0.84,6.6,1.16C486.225,372.665,486.515,373.655,486.805,374.685z"/>
					</g>
					<path style="fill:#FFFFFF;" d="M476.511,406.891c0,0-3.333-2.833-2.417-5.167c0.917-2.333,8.5-3,9.25-2.417
						c0.75,0.583,4.417,8.583,6.583,8.75c2.167,0.167,3.667-4.5,5.5-4c1.387,0.378,1.439,5.816,1.381,8.439
						c-0.017,0.777-0.654,1.395-1.431,1.395H463.46c-0.901,0-1.59-0.822-1.409-1.704c0.249-1.213,1.233-2.653,4.46-2.796
						C472.178,409.141,476.511,406.891,476.511,406.891z"/>
				</g>
				<g>
					<g>
						<path style="fill:#C27559;" d="M584.498,411.757c0.349,0.083,0.705,0.16,1.065,0.233c-0.074-0.253-0.148-0.506-0.223-0.759
							c-2.607-8.84-4.648-18.079-8.867-26.321c-0.24-0.468-0.361-0.927-0.422-1.375c-1.109,0.147-3.29,0.323-5.293,0.931
							c-1.664-0.164-27.759-2.693-38.165-1.241c0,0,13.75-27,2-53.75c0,0-24.75-0.5-32.75,15c0,0-5.25,53.75,10.25,64
							c15.5,10.25,62.757-8.962,62.757-8.962S582.241,405.208,584.498,411.757z"/>
						<g>
							<path style="fill:#0E293A;" d="M534.115,379.735c-0.44,1.11-0.82,1.98-1.09,2.58c-8.93,3.23-19.09,3.15-27.82-0.65
								c-1.21-0.52-2.39-1.11-3.57-1.72c-0.11-1.16-0.2-2.33-0.27-3.5c1.71,0.88,3.41,1.79,5.17,2.56
								C515.185,382.755,525.245,382.875,534.115,379.735z"/>
							<path style="fill:none;stroke:#0E293A;stroke-linecap:round;stroke-linejoin:round;stroke-miterlimit:10;" d="M516.308,406.8
								c2.005,0.99,4.37,1.229,6.534,0.662"/>
						</g>
					</g>
					<path style="fill:#FFFFFF;" d="M577.768,402.274c0,0-1.767,4.002-4.265,3.788c-2.498-0.214-5.296-7.294-4.951-8.179
						c0.346-0.885,6.971-6.678,6.513-8.802c-0.457-2.125-5.358-2.234-5.4-4.133c-0.032-1.438,5.166-3.035,7.696-3.727
						c0.75-0.205,1.523,0.23,1.744,0.975l9.088,30.597c0.257,0.863-0.336,1.758-1.233,1.836c-1.234,0.107-2.894-0.426-3.95-3.479
						C581.159,405.788,577.768,402.274,577.768,402.274z"/>
				</g>
			</g>
			<g>
				<path style="fill:#FBAC4D;" d="M488.345,317.85c0,0-27.25,14.375-35.25,19.375c-0.001,7.723,2.349,14.945,7.122,21.017
					s11.626,10.476,19.132,12.297c5.152,1.25,10.574,1.32,15.596,3.018c4.048,1.369,7.675,3.743,11.595,5.445
					c12.763,5.543,28.596,3.16,39.162-5.895c0,0-1.827-47.157-19.217-60.27C526.485,312.837,512.345,320.475,488.345,317.85z"/>
				<g>
					<path style="fill:none;stroke:#0E293A;stroke-linecap:round;stroke-linejoin:round;stroke-miterlimit:10;" d="M508.418,332.486
						c-2.287,4.216-5.828,7.597-9.412,10.784c-3.584,3.187-7.309,6.297-10.125,10.18c-2.816,3.883-4.67,8.718-3.941,13.459"/>
					<path style="fill:none;stroke:#0E293A;stroke-linecap:round;stroke-linejoin:round;stroke-miterlimit:10;" d="M527.544,319.321
						c0.536,18.929,13.167,36.2,12.431,55.122"/>
					<path style="fill:none;stroke:#0E293A;stroke-linecap:round;stroke-linejoin:round;stroke-miterlimit:10;" d="M454.789,337.127
						c3.835,8.59,9.496,16.36,16.498,22.642c3.035,2.723,6.401,5.213,10.292,6.432c3.73,1.169,7.736,1.107,11.543,1.997
						c5.03,1.176,9.533,3.964,14.452,5.542c6.979,2.239,14.575,1.951,21.726,0.342c5.221-1.175,10.252-3.027,15.204-5.076"/>
				</g>
			</g>
		</g>
		<g>
			<g>
				<path style="fill:#C27559;" d="M478.31,293.98c-3.016-3.237-6.163-6.471-9.239-9.781c-4.544,4.403-10.008,9.504-15.654,14.682
					c-16.824-0.74-31.244-1.572-32.015-1.618c-0.008,0-0.006,0-0.01,0c-1.728-2.757-3.643-4.095-4.612-4.735
					c-0.741-0.49-1.174-0.037-1.387,0.342c-0.108,0.193-0.075,0.441,0.066,0.553c0.674,0.535,1.828,1.89,1.697,2.708
					c-0.148,0.922-5.939-1.473-6.365-0.348c-0.171,0.451,3.862,2.329,3.862,2.329s-4.627-0.833-4.517,0.01
					c0.11,0.844,4.084,2.374,4.084,2.374s-4.705-0.088-4.344,0.678c0.362,0.768,3.969,1.611,3.969,1.611
					c-1.744,0.218-2.439,0.655-2.717,0.968c-0.132,0.148-0.103,0.409,0.053,0.47c1.923,0.757,6.666-0.363,8.681-0.898l-0.001,0.004
					l-0.008,0.031c5.349,4.069,11.468,7.221,17.942,9.657c5.391,2.033,11.027,3.571,16.662,4.736
					c3.874,0.801,7.914-0.115,11.069-2.501c6.915-5.228,13.046-10.676,18.048-15.36c0.019-0.018,0.036-0.034,0.055-0.052
					C481.871,297.872,480.108,295.909,478.31,293.98z"/>
				<g>
					<g>
						<path style="fill:#F16B5F;" d="M466.095,286.35c0,0,6.5,12.875,15.375,16c0,0,18.5-12.625,16.875-24.25
							s-12.375-8.625-14.125-7.875S466.095,286.35,466.095,286.35z"/>
						<path style="fill:#0E293A;" d="M477.055,305.815c-0.65,0.57-1.3,1.14-1.97,1.71l-3.45-2.15l0.81-1.3l-14.7-9.18
							c0.63-0.59,1.26-1.17,1.89-1.75l14.62,9.12l-0.81,1.29L477.055,305.815z"/>
					</g>
					<path style="fill:#0E293A;" d="M482.845,295.605c0.48,1.16,0.99,2.76,1.5,4.58c-0.67,0.54-1.26,0.98-1.72,1.33
						c-0.05-0.2-0.1-0.4-0.15-0.59c0.37-0.35,0.74-0.69,1.1-1.03c0.02-0.02,0.04-0.04,0.06-0.06c-0.74-0.82-1.47-1.64-2.22-2.46
						c-0.22-0.66-0.44-1.26-0.65-1.77c-2.38-5.76-4.75-8.13-3.25-17c0.24-1.43,0.54-2.6,0.9-3.57c2.83-2.53,5.2-4.55,5.8-4.81
						c0.22-0.09,0.57-0.22,1.03-0.35c-2.77,1.43-4.69,3.06-5.65,8.73C478.095,287.475,480.475,289.845,482.845,295.605z"/>
				</g>
			</g>
			<g>
				<g>
					<path style="fill:#C27559;" d="M527.614,275.242c-0.113-6.342-2.69-9.332-5.204-10.767c-1.779-1.015-3.959-1.403-6.073-1.237
						c-2.24,0.176-4.034-0.062-5.479-0.494c-2.277-6.466-1.725-17.53-1.643-19.02c0.01-0.06,0.01-0.11,0.01-0.16l-15.59,11.28
						c0.33,0.44,0.56,1.05,0.71,1.78v0.01c0.28,1.28,0.32,2.9,0.26,4.46c-0.01,0.23-0.02,0.46-0.03,0.68
						c-0.054,0.927-0.139,1.803-0.227,2.551c-1.619,2.522-4.285,3.407-8.339,5.938c-5.632,3.517-6.057,12.319-3.482,21.345
						c2.775,9.721,9.034,25.694,9.034,25.694l34.923-4.465C523.558,302.978,527.859,288.998,527.614,275.242z"/>
					<path style="fill:#0E293A;" d="M501.155,254.665c0,0-2.42,4.9-6.55,6.43c0.06-1.56,0.02-3.18-0.26-4.46
						C494.345,256.635,498.595,257.035,501.155,254.665z"/>
				</g>
				<g>
					<path style="fill:#FFFFFF;" d="M490.72,266.933c0,0,10.5,5.792,21-4.333c0,0,8.5-0.25,9.75,0.5s7,3,7.5,15.125
						s-1.25,34.5,1.25,38.25c0,0-22.75,4.5-41.875,1.375c0,0-3.125-16.5-5.5-22.25s-4.75-8.125-3.25-17
						S484.97,270.766,490.72,266.933z"/>
					<path style="fill:none;stroke:#0E293A;stroke-linecap:round;stroke-linejoin:round;stroke-miterlimit:10;" d="M488.845,268.35
						c0,0,11.75,7.75,24.75-5.125"/>
				</g>
			</g>
			<g>
				<g>
					<g>
						<path style="fill:#B7E3F0;" d="M362.369,226.803c-14.03,22.477-7.183,52.071,15.294,66.102
							c22.477,14.03,52.071,7.183,66.102-15.294c14.03-22.477,7.183-52.071-15.293-66.102
							C405.994,197.479,376.399,204.326,362.369,226.803z M437.227,273.53c-11.776,18.866-36.617,24.613-55.483,12.837
							c-18.866-11.776-24.613-36.617-12.837-55.483c11.777-18.866,36.617-24.613,55.483-12.837
							C443.256,229.823,449.003,254.664,437.227,273.53z"/>
						
							<ellipse transform="matrix(0.8853 -0.465 0.465 0.8853 -71.0474 216.3337)" style="opacity:0.31;fill:#CEE8F0;" cx="403.067" cy="252.207" rx="40.269" ry="40.269"/>
					</g>
					
						<rect x="472.011" y="255.061" transform="matrix(0.5295 -0.8483 0.8483 0.5295 -28.6657 544.7538)" style="fill:#B7E3F0;" width="9.537" height="86.318"/>
					
						<rect x="488.792" y="288.067" transform="matrix(0.5295 -0.8483 0.8483 0.5295 -29.7442 565.6632)" style="fill:#0E293A;" width="12.588" height="43.159"/>
				</g>
				<g>
					<g>
						<path style="fill:#C27559;" d="M516.72,263.225c-15.625,3.125-1.631,39.132-1.631,39.132l-30.635,2.998
							c0,0-4.109-4.63-6.046-4.192s1.869,2.839,1.716,3.701c0,0-2.091,0.487-4.403,0.112l-0.813-0.625c0,0,0.25,2.188,2.5,2.688
							c0,0-1,1.188,0,2.625c0,0-0.063,1.75,0.875,2c0,0,0.688,1.313,1.75,1.5c0.766,0.135,3.083-0.831,4.322-1.383
							c4.734,1.557,41.732,13.273,48.866,1.695C540.845,301.1,532.345,260.1,516.72,263.225z"/>
						<g>
							<path style="fill:#0E293A;" d="M535.885,295.225c-9.75,2.31-20.08,1.23-22.7,0.9c2.56-0.12,13.01-0.82,22.28-4.82
								C535.645,292.615,535.785,293.935,535.885,295.225z"/>
							<path style="fill:none;stroke:#0E293A;stroke-linecap:round;stroke-linejoin:round;stroke-miterlimit:10;" d="
								M528.47,314.225c0.458-0.5,0.917-1,1.375-1.5"/>
							<path style="fill:none;stroke:#0E293A;stroke-linecap:round;stroke-linejoin:round;stroke-miterlimit:10;" d="
								M484.453,305.355c0,0,33.516-3.755,37.891-3.005"/>
						</g>
					</g>
					<g>
						<path style="fill:#F16B5F;" d="M512.595,296.141c0,0,12.5-0.25,23.25-5c0,0-1.5-12.667-6.083-19.583
							c-4.583-6.917-7.917-9.833-13.083-8.75c-5.167,1.083-8,6.667-8.417,11.417C507.845,278.975,512.595,296.141,512.595,296.141z"
							/>
						<path style="fill:none;stroke:#0E293A;stroke-linecap:round;stroke-linejoin:round;stroke-miterlimit:10;" d="M512.72,292.975
							c0,0,14.833-0.542,21.75-5.375"/>
					</g>
				</g>
			</g>
		</g>
		<g>
			<g>
				<path style="fill:#C27559;" d="M503.965,224.045c-7.87-5.4-17.88-2.04-19.41,3.8c-0.719,2.756-1.01,5.726-1.047,8.739
					c-0.13,1.264-0.486,2.505-1.075,3.631c-0.232,0.444-0.5,0.874-0.651,1.351c-0.152,0.477-0.175,1.022,0.073,1.458
					c0.368,0.648,1.3,1.119,2,0.914c0.056,0.614,0.105,1.236,0.171,1.837c0.02,0.19,0.04,0.37,0.06,0.55
					c0.05,0.4,0.09,0.8,0.14,1.19c0.01,0.07,0.02,0.14,0.02,0.21c0.04,0.3,0.07,0.6,0.11,0.89c0.03,0.21,0.05,0.41,0.08,0.62
					c0.11,0.88,0.25,1.78,0.64,2.59c1.5,3.08,6.32,4.54,9.49,4.83c4.07,0.37,7.96-1.14,10.78-4.09c2.33-2.43,3.62-5.66,3.88-9.01
					C509.655,238.105,509.605,227.915,503.965,224.045z"/>
				<g>
					<g>
						<path style="fill:#D17858;" d="M495.205,243.267c0.202,1.756-1.059,3.344-2.815,3.545c-1.756,0.202-3.344-1.059-3.545-2.815
							c-0.202-1.756,1.059-3.344,2.815-3.545C493.416,240.25,495.003,241.511,495.205,243.267z"/>
					</g>
					<g>
						<g>
							<path style="fill:#0E293A;" d="M486.461,238.018c0.119,1.038,0.627,1.833,1.134,1.775c0.507-0.058,0.822-0.947,0.703-1.986
								c-0.119-1.038-0.627-1.833-1.134-1.775C486.656,236.091,486.342,236.98,486.461,238.018z"/>
							<path style="fill:#0E293A;" d="M488.77,235.131c-0.337,0.498-0.871,0.876-1.388,0.915c-0.188,0.014-0.33,0.178-0.316,0.367
								c0.014,0.188,0.178,0.33,0.367,0.316c0.03-0.002,0.059-0.008,0.087-0.018l0.017-0.006c0.361-0.128,0.671-0.346,0.904-0.607
								c0.236-0.263,0.409-0.551,0.529-0.874c0.021-0.057-0.008-0.121-0.065-0.142c-0.049-0.018-0.102,0-0.13,0.042L488.77,235.131z
								"/>
						</g>
					</g>
					<g>
						<path style="fill:#0E293A;" d="M487.505,243.665c-0.16,0.31-0.34,0.61-0.52,0.91c-0.23,0.27-0.44,0.57-0.71,0.8
							c-0.53,0.5-1.23,0.84-1.97,0.94c-0.07,0.01-0.15,0.02-0.22,0.01c-0.02-0.18-0.04-0.36-0.06-0.55c0.07,0,0.14-0.01,0.21-0.02
							c0.63-0.08,1.23-0.33,1.76-0.72c0.28-0.18,0.51-0.43,0.78-0.64C487.015,244.155,487.245,243.905,487.505,243.665z"/>
						<path style="fill:#0E293A;" d="M485.405,247.285c-0.24,0.25-0.58,0.38-0.93,0.43c-0.08,0.01-0.15,0.01-0.23,0.01
							c0-0.07-0.01-0.14-0.02-0.21c0.08,0.01,0.15,0,0.22-0.01C484.775,247.475,485.075,247.375,485.405,247.285z"/>
					</g>
					<g>
						<path style="fill:#0E293A;" d="M484.949,231.585c0.385-0.43,0.856-0.609,1.363-0.69c0.504-0.069,1.03-0.07,1.54,0.041
							c0.513,0.095,1.002,0.321,1.422,0.611c0.435,0.277,0.764,0.671,1.045,1.063c0.142,0.199,0.096,0.475-0.102,0.617
							c-0.159,0.114-0.368,0.107-0.518-0.001l-0.041-0.03c-0.331-0.241-0.647-0.466-0.99-0.616
							c-0.332-0.172-0.692-0.246-1.049-0.296c-0.359-0.041-0.728-0.043-1.097,0.019c-0.365,0.055-0.753,0.118-1.167,0.066
							l-0.119-0.015c-0.254-0.032-0.434-0.264-0.402-0.518C484.847,231.738,484.888,231.652,484.949,231.585z"/>
					</g>
					<path style="fill:#0E293A;" d="M503.616,239.158c-0.039-0.433-0.213-0.897-0.633-1.188c-0.443-0.285-1.016-0.188-1.434,0.026
						c-0.446,0.214-0.79,0.576-1.049,0.967c-0.266,0.396-0.444,0.812-0.574,1.283c-0.047,0.168,0.052,0.342,0.22,0.388
						c0.127,0.035,0.257-0.012,0.333-0.11l0.018-0.024c0.27-0.346,0.616-0.721,0.967-0.865c0.176-0.068,0.312-0.078,0.448-0.002
						c0.141,0.077,0.263,0.26,0.372,0.452c0.207,0.394,0.359,0.865,0.03,1.096c-0.345,0.252-0.891,0.263-1.38,0.255
						c0.478,0.147,1,0.258,1.553,0.03c0.279-0.127,0.472-0.483,0.457-0.783c-0.006-0.301-0.08-0.566-0.185-0.822
						c-0.108-0.253-0.25-0.518-0.533-0.717c-0.288-0.204-0.704-0.212-0.985-0.088c-0.574,0.247-0.937,0.637-1.264,1.079l0.571,0.255
						c0.205-0.753,0.592-1.556,1.236-1.972c0.323-0.202,0.717-0.332,1.061-0.187C503.203,238.366,503.454,238.758,503.616,239.158z"
						/>
				</g>
			</g>
			<path style="fill:#0E293A;" d="M506.22,255.225c-4.167,0.833-6.708-11.25-6.708-11.25s7.167-1.833,4.991-5.966
				c-2.176-4.132-5.566-0.591-5.566-0.591c-0.548,1.141-1.271,2.42-2.518,2.638c-0.761,0.133-1.552-0.195-2.117-0.722
				c-0.565-0.527-0.933-1.232-1.213-1.953c-0.754-1.942-0.933-4.104-0.508-6.143c-1.395-0.85-2.924-1.24-4.553-1.118
				c-1.629,0.122-3.013,1.057-4.266,2.105c-1.78-1.073-3.806-2.033-5.064-3.687c-1.258-1.654-1.862-3.968-0.974-5.846
				c0.869-1.84,2.926-2.832,4.927-3.202c2.001-0.37,4.067-0.262,6.069-0.626c2.659-0.483,5.107-1.78,7.742-2.379
				c2.79-0.635,5.788-0.451,8.415,0.682c2.628,1.133,4.856,3.238,5.981,5.869c0.932,2.179,1.093,4.596,1.538,6.925
				c0.466,2.441,1.798,10.534,1.949,13.014C514.496,245.455,510.386,254.391,506.22,255.225z"/>
		</g>
	</g>
	<g>
		<g>
			<path style="fill:#048FA6;" d="M639.5,415.375h-558c-0.552,0-1-0.447-1-1s0.448-1,1-1h558c0.553,0,1,0.447,1,1
				S640.053,415.375,639.5,415.375z"/>
		</g>
	</g>
</g>
<!-- <g id="DESIGNED_BY_FREEPIK">
	<g id="XMLID_258_">
		<g id="XMLID_287_">
			<g id="XMLID_306_">
				<path id="XMLID_314_" style="fill:#A5B7C6;" d="M385.104,465.465c-0.433,0.443-0.804,0.932-1.108,1.453l-0.465-0.241
					c-0.067-0.297-0.35-0.502-0.659-0.466c-0.331,0.039-0.567,0.339-0.529,0.67c0.039,0.331,0.339,0.567,0.67,0.528
					c0.066-0.007,0.127-0.025,0.184-0.052l0.451,0.234c-0.251,0.554-0.433,1.139-0.539,1.743l0.747,0.132
					c0.229-1.306,0.85-2.507,1.792-3.473L385.104,465.465z"/>
				<path id="XMLID_313_" style="fill:#A5B7C6;" d="M390.591,463.164c-0.171,0-0.341,0.006-0.509,0.017l-0.074-0.626
					c0.188-0.149,0.296-0.389,0.266-0.645c-0.046-0.393-0.402-0.674-0.795-0.628c-0.394,0.046-0.675,0.402-0.628,0.796
					c0.03,0.254,0.189,0.461,0.404,0.563l0.073,0.624c-0.714,0.116-1.402,0.332-2.06,0.646l0.327,0.685
					c0.935-0.447,1.941-0.674,2.995-0.674c0.497,0,0.993,0.053,1.476,0.158l0.16-0.741
					C391.692,463.222,391.142,463.164,390.591,463.164z"/>
				<path id="XMLID_312_" style="fill:#A5B7C6;" d="M397.194,465.711c0.331-0.04,0.566-0.341,0.525-0.672
					c-0.04-0.331-0.341-0.566-0.672-0.525c-0.31,0.038-0.535,0.304-0.53,0.608l-0.416,0.363c-0.418-0.43-0.89-0.813-1.407-1.14
					l-0.404,0.642c1.135,0.715,2.021,1.727,2.564,2.925l0.69-0.313c-0.251-0.554-0.567-1.071-0.942-1.545l0.402-0.351
					C397.065,465.715,397.128,465.719,397.194,465.711z"/>
				<path id="XMLID_311_" style="fill:#A5B7C6;" d="M390.044,473.372c-0.386,0.023-0.775,0.035-1.157,0.035
					c-0.88,0-1.733-0.061-2.478-0.18c-0.391-0.062-0.846-0.154-1.271-0.292c1.047,1.861,3.069,3.125,5.389,3.125
					c2.855,0,5.263-1.916,5.949-4.503c-0.682,0.449-1.505,0.825-2.458,1.122C392.838,473.047,391.463,473.287,390.044,473.372z"/>
				<path id="XMLID_307_" style="fill:#A5B7C6;" d="M390.591,464.68c-3.352,0-6.079,2.666-6.079,5.943
					c0,0.425,0.046,0.849,0.137,1.261c0.674,0.483,2.706,0.891,5.348,0.731c2.88-0.174,5.297-0.958,6.672-2.159
					c-0.005-0.194-0.02-0.39-0.045-0.581C396.244,466.914,393.65,464.68,390.591,464.68z M388.432,471.195
					c-1.02,0-1.85-0.83-1.85-1.85c0-1.021,0.83-1.851,1.85-1.851c1.02,0,1.85,0.83,1.85,1.851
					C390.282,470.365,389.452,471.195,388.432,471.195z M393.169,470.287c-0.75,0-1.36-0.61-1.36-1.36s0.61-1.36,1.36-1.36
					s1.36,0.61,1.36,1.36S393.919,470.287,393.169,470.287z"/>
			</g>
			<path id="XMLID_304_" style="fill:#A5B7C6;" d="M406.595,466.547c-0.295-0.116-0.806-0.31-1.383-0.238
				c-0.551,0.069-0.844,0.341-0.844,1.007v0.866h2.229v1.717h-2.229v5.455h-1.932v-5.455h-1.339v-1.717h1.339v-0.889
				c0-1.68,0.896-2.782,2.568-2.782c0.643,0,1.157,0.121,1.59,0.308V466.547z"/>
			<path id="XMLID_302_" style="fill:#A5B7C6;" d="M411.297,469.878c-0.177-0.029-0.357-0.046-0.525-0.046
				c-0.896,0-1.51,0.548-1.51,1.613v3.908h-1.933v-7.172h1.873v0.784c0.451-0.673,1.14-0.977,2.02-0.977
				c0.414,0,0.848,0.128,1.095,0.337L411.297,469.878z"/>
			<path id="XMLID_299_" style="fill:#A5B7C6;" d="M418.965,471.757c0,0.222-0.016,0.488-0.037,0.651h-5.085
				c0.207,1.036,0.933,1.487,1.843,1.487c0.622,0,1.295-0.252,1.813-0.689l1.133,1.243c-0.814,0.748-1.851,1.089-3.057,1.089
				c-2.198,0-3.724-1.496-3.724-3.753c0-2.258,1.48-3.797,3.627-3.797C417.543,467.99,418.958,469.522,418.965,471.757z
				 M413.851,471.091h3.175c-0.178-0.918-0.732-1.437-1.561-1.437C414.554,469.655,414.021,470.203,413.851,471.091z"/>
			<path id="XMLID_296_" style="fill:#A5B7C6;" d="M426.619,471.757c0,0.222-0.016,0.488-0.037,0.651h-5.085
				c0.207,1.036,0.933,1.487,1.843,1.487c0.622,0,1.296-0.252,1.814-0.689l1.133,1.243c-0.814,0.748-1.851,1.089-3.058,1.089
				c-2.198,0-3.723-1.496-3.723-3.753c0-2.258,1.48-3.797,3.627-3.797C425.197,467.99,426.611,469.522,426.619,471.757z
				 M421.504,471.091h3.175c-0.178-0.918-0.733-1.437-1.562-1.437C422.208,469.655,421.674,470.203,421.504,471.091z"/>
			<path id="XMLID_293_" style="fill:#A5B7C6;" d="M434.964,471.764c0,2.154-1.495,3.775-3.472,3.775
				c-0.962,0-1.643-0.378-2.109-0.933v3.708h-1.925v-10.133h1.888v0.792c0.467-0.585,1.154-0.984,2.139-0.984
				C433.469,467.99,434.964,469.611,434.964,471.764z M429.287,471.764c0,1.133,0.748,1.977,1.844,1.977
				c1.14,0,1.85-0.881,1.85-1.977c0-1.095-0.71-1.976-1.85-1.976C430.035,469.789,429.287,470.632,429.287,471.764z"/>
			<path id="XMLID_290_" style="fill:#A5B7C6;" d="M438.068,465.836c0,0.696-0.541,1.229-1.236,1.229
				c-0.696,0-1.229-0.533-1.229-1.229c0-0.695,0.532-1.243,1.229-1.243C437.527,464.592,438.068,465.14,438.068,465.836z
				 M437.808,475.354h-1.932v-7.172h1.932V475.354z"/>
			<path id="XMLID_288_" style="fill:#A5B7C6;" d="M441.032,470.736l2.702-2.554h2.368l-3.478,3.375l3.501,3.797h-2.376
				l-2.717-2.901v2.901H439.1v-10.658h1.932V470.736z"/>
		</g>
		<g id="XMLID_259_">
			<path id="XMLID_284_" style="fill:#A5B7C6;" d="M309.412,475.29v-1.055c-0.527,0.718-1.391,1.23-2.387,1.23
				c-1.846,0-3.149-1.406-3.149-3.706c0-2.256,1.289-3.721,3.149-3.721c0.952,0,1.816,0.469,2.387,1.245v-3.765h1.099v9.771H309.412
				z M309.412,473.371v-3.208c-0.395-0.615-1.245-1.143-2.124-1.143c-1.42,0-2.27,1.172-2.27,2.739c0,1.567,0.85,2.725,2.27,2.725
				C308.167,474.484,309.017,473.986,309.412,473.371z"/>
			<path id="XMLID_281_" style="fill:#A5B7C6;" d="M311.932,471.745c0-2.051,1.465-3.706,3.486-3.706
				c2.139,0,3.398,1.67,3.398,3.794v0.278h-5.727c0.088,1.333,1.025,2.446,2.549,2.446c0.806,0,1.626-0.322,2.182-0.894l0.527,0.718
				c-0.703,0.703-1.655,1.084-2.812,1.084C313.44,475.465,311.932,473.957,311.932,471.745z M315.403,468.947
				c-1.509,0-2.256,1.274-2.314,2.358h4.644C317.718,470.25,317.015,468.947,315.403,468.947z"/>
			<path id="XMLID_279_" style="fill:#A5B7C6;" d="M319.607,474.352l0.571-0.791c0.469,0.542,1.362,1.011,2.329,1.011
				c1.084,0,1.67-0.513,1.67-1.216c0-1.714-4.38-0.659-4.38-3.281c0-1.099,0.952-2.036,2.636-2.036c1.202,0,2.051,0.454,2.623,1.025
				l-0.513,0.762c-0.424-0.513-1.201-0.894-2.109-0.894c-0.966,0-1.567,0.483-1.567,1.113c0,1.553,4.379,0.527,4.379,3.281
				c0,1.187-0.952,2.139-2.783,2.139C321.306,475.465,320.325,475.114,319.607,474.352z"/>
			<path id="XMLID_276_" style="fill:#A5B7C6;" d="M326.477,466.471c0-0.41,0.337-0.747,0.732-0.747c0.41,0,0.747,0.337,0.747,0.747
				c0,0.41-0.337,0.732-0.747,0.732C326.814,467.204,326.477,466.881,326.477,466.471z M326.667,475.29v-7.075h1.099v7.075H326.667z
				"/>
			<path id="XMLID_273_" style="fill:#A5B7C6;" d="M329.582,477.106l0.556-0.82c0.586,0.703,1.289,0.967,2.3,0.967
				c1.172,0,2.271-0.571,2.271-2.124v-1.011c-0.513,0.718-1.377,1.26-2.373,1.26c-1.846,0-3.149-1.377-3.149-3.662
				c0-2.271,1.289-3.677,3.149-3.677c0.952,0,1.802,0.469,2.373,1.245v-1.069h1.099v6.87c0,2.344-1.641,3.076-3.369,3.076
				C331.237,478.161,330.417,477.925,329.582,477.106z M334.708,473.253v-3.091c-0.381-0.615-1.23-1.143-2.109-1.143
				c-1.421,0-2.27,1.128-2.27,2.695c0,1.553,0.849,2.695,2.27,2.695C333.478,474.411,334.328,473.869,334.708,473.253z"/>
			<path id="XMLID_271_" style="fill:#A5B7C6;" d="M342.413,475.29v-4.629c0-1.245-0.63-1.641-1.582-1.641
				c-0.864,0-1.685,0.527-2.094,1.099v5.171h-1.099v-7.075h1.099v1.025c0.498-0.586,1.464-1.201,2.519-1.201
				c1.479,0,2.256,0.747,2.256,2.285v4.966H342.413z"/>
			<path id="XMLID_268_" style="fill:#A5B7C6;" d="M344.932,471.745c0-2.051,1.465-3.706,3.486-3.706
				c2.139,0,3.398,1.67,3.398,3.794v0.278h-5.727c0.088,1.333,1.025,2.446,2.548,2.446c0.806,0,1.626-0.322,2.183-0.894l0.527,0.718
				c-0.703,0.703-1.655,1.084-2.813,1.084C346.441,475.465,344.932,473.957,344.932,471.745z M348.404,468.947
				c-1.509,0-2.256,1.274-2.314,2.358h4.643C350.718,470.25,350.015,468.947,348.404,468.947z"/>
			<path id="XMLID_265_" style="fill:#A5B7C6;" d="M358.35,475.29v-1.055c-0.527,0.718-1.392,1.23-2.388,1.23
				c-1.845,0-3.149-1.406-3.149-3.706c0-2.256,1.289-3.721,3.149-3.721c0.952,0,1.817,0.469,2.388,1.245v-3.765h1.098v9.771H358.35z
				 M358.35,473.371v-3.208c-0.396-0.615-1.245-1.143-2.124-1.143c-1.421,0-2.271,1.172-2.271,2.739c0,1.567,0.85,2.725,2.271,2.725
				C357.105,474.484,357.954,473.986,358.35,473.371z"/>
			<path id="XMLID_262_" style="fill:#A5B7C6;" d="M364.692,475.29v-9.771h1.099v3.765c0.571-0.776,1.421-1.245,2.388-1.245
				c1.845,0,3.149,1.465,3.149,3.721c0,2.3-1.304,3.706-3.149,3.706c-0.996,0-1.86-0.513-2.388-1.23v1.055H364.692z M367.9,474.484
				c1.436,0,2.285-1.157,2.285-2.725c0-1.567-0.85-2.739-2.285-2.739c-0.864,0-1.729,0.527-2.109,1.143v3.208
				C366.171,473.986,367.036,474.484,367.9,474.484z"/>
			<path id="XMLID_260_" style="fill:#A5B7C6;" d="M372.528,477.062c0.161,0.073,0.425,0.117,0.6,0.117
				c0.483,0,0.806-0.161,1.055-0.747l0.469-1.069l-2.959-7.148h1.186l2.358,5.801l2.344-5.801h1.2l-3.544,8.511
				c-0.425,1.024-1.143,1.421-2.08,1.436c-0.234,0-0.601-0.044-0.806-0.104L372.528,477.062z"/>
		</g>
	</g> -->
<!-- </g> -->
</svg>
